<?xml version="1.0" encoding="utf-8"?>
<!-- Generator: Adobe Illustrator 23.0.3, SVG Export Plug-In . SVG Version: 6.00 Build 0)  -->
<svg version="1.1" id="Layer_1" xmlns="http://www.w3.org/2000/svg" xmlns:xlink="http://www.w3.org/1999/xlink" x="0px" y="0px"
	 viewBox="0 0 170.08 153.07" style="enable-background:new 0 0 170.08 153.07;" xml:space="preserve">
<style type="text/css">
	.st0{fill:#81B29A;}
	.st1{fill:none;stroke:#FFFFFF;stroke-width:0.6815;stroke-miterlimit:10;}
	.st2{fill:#FFFFFF;stroke:#FFFFFF;stroke-width:0.6815;stroke-miterlimit:10;}
	.st3{fill:none;stroke:#000000;stroke-width:0.8172;stroke-miterlimit:10;}
	.st4{fill:none;stroke:#FFFFFF;stroke-width:0.4865;stroke-miterlimit:10;}
	.st5{fill:none;stroke:#000000;stroke-width:0.5257;stroke-miterlimit:10;}
	.st6{fill:none;stroke:#FFFFFF;stroke-width:0.5257;stroke-miterlimit:10;}
</style>
<g>
	<path class="st0" d="M82.42,125.71L82.42,125.71l1.77-120.8c-0.05-1.9,1.46-3.55,3.42-3.75l0,0c13.91,0.02,23.47,0.23,28.69,0.63
		c5.22,0.4,10.6,1.37,16.13,2.89c5.88,1.65,11.37,4.06,16.49,7.23c5.11,3.17,9.09,6.64,11.92,10.42c4.42,5.91,6.63,12.51,6.62,19.81
		c-0.01,6.57-1.85,12.5-5.52,17.79c-3.68,5.29-8.66,9.17-14.96,11.66c4.98,3.17,8.69,6.63,11.14,10.37
		c2.45,3.74,3.67,7.78,3.67,12.09c-0.01,7-3.1,13.44-9.26,19.33c-7.55,7.29-18.9,11.23-34.05,11.82 M95.17,119.74
		c0,0.95,0.77,1.71,1.71,1.71h6.79c10.31,0.01,19.33-2.15,25.07-3.15c5.74-1,10.52-2.72,14.33-5.16
		c7.89-5.12,11.85-11.6,11.86-19.42c0.01-3.97-1.36-7.63-4.08-10.96c-2.73-3.33-6.82-6.35-12.29-9.04c-2.98,0.55-5.74,0.82-8.3,0.81
		c-5.47-0.01-9.88-0.81-13.23-2.4c-3.35-1.59-5.03-3.67-5.02-6.24c0-1.41,0.56-2.11,1.66-2.11c0.83,0,1.97,0.31,3.42,0.92
		c4.77,2.15,9.96,3.22,15.56,3.23c10.17,0.01,17.85-3.52,23.05-10.61c3.33-4.46,4.99-9.56,5-15.3c0.01-8.74-3.82-16.23-11.49-22.47
		c-5.46-4.53-11.98-7.81-19.55-9.83s-17.07-3.05-28.48-3.06l-1.76,0c0,0,0,0,0,0c-2.55,0-4.25,1.67-4.25,4.25c0,0,0,0,0,0"/>
</g>
<g>
	<path class="st0" d="M76.67,1.16c2.3-0.06,4.19,1.79,4.19,4.09c-0.06,16.71-0.41,51.03-0.47,56.67c-0.01,0.52-0.01,0.79-0.01,0.79
		l-1.34,58.73v4.25h-4.25h-6.27c-1.24,0-2.24-1-2.24-2.24v-6.27l0.13-17.62v0c0.03-1.46-1.66-2.3-2.81-1.39
		c-10.52,8.27-19.91,14.44-28.17,18.52c-10.83,5.31-19.21,7.9-25.14,7.79c-2.6-0.05-3.88-1.07-3.84-3.05
		c0.03-1.44,0.92-2.32,2.67-2.65c7.25-1.42,14.05-3.47,20.4-6.14c4.82-2.03,9.41-4.4,13.74-7.11c1.36-0.85,0.9-2.94-0.69-3.18
		c-14.68-2.22-25.82-9.74-33.41-22.55c-5.2-8.8-7.71-18.12-7.53-27.96c0.17-9.24,2.74-18.01,7.7-26.31
		C14.7,16.6,21.89,10.23,30.89,6.45C36.41,4.1,43.05,1.99,50.9,1.8L76.67,1.16z M65.25,88.38c0.32-0.31,0.51-0.74,0.53-1.2
		l0.14-3.52l0.3-16.29l0.33-54.32c0.02-3.33-2.72-6.01-6.05-5.93C49.96,7.4,41.54,8.59,35.26,10.69c-7.44,2.5-13.68,6.9-18.71,13.22
		C9.96,32.07,6.56,41.39,6.37,51.89c-0.12,6.18,1.04,12.26,3.47,18.25c2.59,6.53,6.38,12.01,11.38,16.42
		c7.89,7.06,17.65,10.7,29.28,10.92l3.48-0.01c0.38,0,0.75-0.12,1.06-0.35C58.61,94.42,62.02,91.51,65.25,88.38z"/>
</g>
<path class="st0" d="M100.08,142.68c0.63,0.45,1.1,0.94,1.41,1.47c0.31,0.53,0.47,1.1,0.47,1.71c0,0.99-0.39,1.9-1.17,2.74
	c-0.95,1.03-2.39,1.59-4.3,1.68c-1.06,0.05-0.24,0.08-2.16,0.08h-3.42l0.01-0.61l0.03-2.51l0.04-4.94l-0.05-5.37l-0.03-4.21h1.66
	c1.76,0,2.96,0.03,3.62,0.08c0.66,0.06,1.34,0.19,2.04,0.41c0.74,0.23,1.44,0.57,2.08,1.02c0.65,0.45,1.15,0.94,1.51,1.47
	c0.56,0.84,0.84,1.77,0.84,2.8c0,0.93-0.23,1.77-0.69,2.52C101.5,141.78,100.87,142.33,100.08,142.68z M99.01,143.02
	c-0.38,0.08-0.73,0.12-1.05,0.12c-0.69,0-1.25-0.11-1.67-0.34c-0.42-0.22-0.64-0.52-0.64-0.88c0-0.2,0.07-0.3,0.21-0.3
	c0.1,0,0.25,0.04,0.43,0.13c0.6,0.3,1.26,0.45,1.97,0.45c1.28,0,2.25-0.5,2.91-1.5c0.42-0.63,0.63-1.35,0.63-2.16
	c0-1.23-0.48-2.29-1.45-3.17c-0.69-0.64-1.51-1.1-2.47-1.38c-0.96-0.28-2.16-0.43-3.6-0.43h-0.72l-0.08,7.75l0.08,8.18l1.18,0.01
	c1.3,0,2.32-0.07,3.04-0.21c0.72-0.14,1.33-0.39,1.81-0.73c1-0.72,1.49-1.64,1.49-2.74c0-0.56-0.17-1.07-0.52-1.54
	C100.22,143.82,99.7,143.39,99.01,143.02z"/>
<g>
	<path class="st0" d="M62.81,149.81c-0.72,0-1.3-0.25-1.76-0.76L61,149l-0.33-0.37l-0.4,0.29c-0.76,0.56-1.54,0.83-2.39,0.83
		c-0.97,0-1.63-0.47-2.09-1.48l-0.51-1.12l-0.47,1.13c-0.43,1.03-1.15,1.51-2.27,1.51c-0.6,0-1.09-0.22-1.49-0.68
		c-0.12-0.14-0.23-0.29-0.32-0.47l-0.3-0.58l-0.51,0.41c-0.35,0.28-0.72,0.51-1.12,0.69c-0.77,0.35-1.4,0.52-1.88,0.52
		c-0.6,0-0.99-0.19-0.99-1.11c0-0.51,0.17-1.29,0.5-2.3c0.55-1.69,0.55-1.77,0.55-1.89c0-0.42-0.29-0.64-0.59-0.64h-0.11l-0.12,0.04
		c-0.3,0.12-0.77,0.48-2.1,2.23c-0.99,1.3-1.59,2.21-1.82,2.78c-0.26,0.65-0.4,0.8-0.42,0.82c-0.02,0.02-0.13,0.07-0.35,0.07
		c-0.05,0-0.25-0.01-0.37-0.59l-0.17-0.86l-0.69,0.55c-0.12,0.1-0.24,0.19-0.37,0.28c-0.55,0.39-1.07,0.59-1.54,0.59
		c-0.45,0-0.78-0.1-1-0.31c-0.24-0.22-0.38-0.52-0.43-0.92l-1.05,0.07l0.05-0.19c-0.26,0.48-0.58,0.84-1,1.1
		c-0.42,0.26-0.92,0.38-1.53,0.38c-0.54,0-0.95-0.19-1.28-0.59c-0.35-0.44-0.53-0.99-0.53-1.71c0-1.43,0.51-2.68,1.56-3.81
		c1.03-1.12,2.09-1.66,3.22-1.66c0.33,0,0.48,0.04,0.55,0.07v0.49c-1.15,0.02-2.19,0.56-3.09,1.61c-0.89,1.04-1.33,2.06-1.33,3.03
		c0,1.62,1.07,1.8,1.53,1.8c0.64,0,1.23-0.33,1.77-0.97c0.48-0.58,0.81-1.22,0.99-1.92l0.83-3.41h0.44c0.13,0,0.18,0.02,0.19,0.03
		c0,0,0.01,0.04,0.01,0.12v0.11l-0.73,4.4c-0.02,0.11-0.04,0.23-0.04,0.39c0,0.85,0.51,1.15,0.98,1.15c0.78,0,1.61-0.54,2.55-1.65
		l0.1-0.12l0.02-0.16c0.15-1.38,0.5-2.81,1.04-4.25c0.22-0.59,0.51-0.59,0.66-0.59c0.08,0,0.12,0.02,0.15,0.05
		c0.05,0.05,0.06,0.07,0.06,0.07c0,0.05,0,0.1-0.01,0.14c-0.41,1.15-0.74,2.47-0.99,3.9l0.99,0.35c0.88-1.5,1.75-2.66,2.59-3.45
		c0.76-0.71,1.44-1.09,1.97-1.09c0.23,0,0.41,0.06,0.58,0.2c0.08,0.06,0.2,0.18,0.2,0.28c0,0.18-0.08,0.74-0.64,2.42
		c-0.61,1.82-0.72,2.27-0.74,2.46c-0.04,0.26-0.06,0.5-0.06,0.71c0,0.18,0.04,0.33,0.11,0.46c0.12,0.2,0.34,0.32,0.58,0.32l0.06,0
		c0.09-0.01,0.21-0.01,0.21-0.01l0.05-0.01c0.68-0.14,1.44-0.58,2.32-1.34l0.18-0.16v-0.24c0-1.31,0.41-2.47,1.26-3.55
		c0.81-1.04,1.7-1.55,2.71-1.55c0.24,0,0.49,0.04,0.75,0.13l0.61,0.2l0.09-0.63c0.76-5.41,2.23-8.16,4.37-8.16
		c0.38,0,0.7,0.12,0.96,0.37c0.27,0.26,0.41,0.54,0.43,0.88c0.01,0.09,0.02,0.22,0.02,0.51c0,1.42-0.43,2.92-1.28,4.44
		c-0.49,0.89-0.87,1.57-1.16,2.03s-0.79,1.2-1.5,2.2c-0.72,1.02-1.14,1.61-1.24,1.77l-0.09,0.13v0.39c0,2.28,0.95,2.76,1.74,2.76
		c0.71,0,1.43-0.3,2.14-0.9l0.24-0.2l-0.06-0.3c-0.05-0.23-0.07-0.46-0.07-0.7c0-1.3,0.42-2.43,1.28-3.43
		c0.84-0.98,1.79-1.46,2.89-1.46c0.59,0,1.07,0.2,1.47,0.61c0.41,0.42,0.6,0.95,0.6,1.61c0,0.1-0.02,0.3-0.1,0.74l-0.14,0.75
		l0.76-0.14c0.85-0.15,1.71-0.58,2.54-1.25l0.14-0.11l0.04-0.17c0.13-0.51,0.28-1.02,0.45-1.52c0.17-0.52,0.39-0.52,0.49-0.52
		c0.06,0,0.1,0.01,0.15,0.05c0,0.04,0,0.07-0.01,0.09c-0.09,0.3-0.19,0.63-0.27,0.96l-0.04,0.17l0.07,0.16
		c0.02,0.04,0.02,0.07,0.02,0.08c0,0.02,0,0.03,0,0.04c-0.02,0.02-0.12,0.13-0.12,0.13l-0.09,0.1l-0.03,0.13
		c-0.22,1-0.4,2.05-0.53,3.11l1.02,0.26c0.75-1.84,1.5-3.21,2.23-4.06c0.87-1.01,1.37-1.16,1.59-1.16c0.13,0,0.24,0.03,0.34,0.11
		c0.05,0.03,0.07,0.06,0.07,0.15c0,0.75-0.28,2.2-0.83,4.33l1.01,0.32c1.57-4.07,2.9-4.92,3.74-4.92c0.49,0,0.65,0.16,0.65,0.64
		c0,0.3-0.11,0.96-0.61,2.38c-0.45,1.27-0.67,2.23-0.67,2.94c0,0.74,0.45,1.2,1.16,1.2c0.17,0,0.3-0.01,0.4-0.04
		c0.38-0.09,1.03-0.4,2.59-1.89c0.02,0.01,0.07,0.04,0.13,0.1c0.01,0.01,0.03,0.02,0.04,0.03c-0.49,0.63-1.1,1.15-1.79,1.55
		c-0.73,0.42-1.35,0.63-1.85,0.63h-0.05c-0.41,0-0.71-0.11-0.92-0.34c-0.22-0.24-0.33-0.54-0.33-0.93v-0.2
		c0.09-0.77,0.48-2.23,1.16-4.36l-0.85-0.56c-0.84,0.7-1.96,2.59-3.43,5.79c-0.16,0.33-0.35,0.55-0.49,0.55c-0.2,0-0.49,0-0.49-0.82
		c0-0.82,0.32-2.45,0.96-4.85l-0.95-0.43c-1.04,1.48-2.02,3.13-2.91,4.89c-0.21,0.43-0.4,0.74-0.57,0.94
		c-0.14,0.16-0.22,0.23-0.25,0.25c-0.04,0.01-0.11,0.02-0.25,0.02c-0.13,0-0.49,0-0.49-1.11c0-0.83,0.07-1.69,0.19-2.56l0.17-1.12
		l-0.98,0.6c-0.64,0.39-1.33,0.69-2.06,0.89l-0.3,0.08l-0.08,0.3C65.72,148.81,64.6,149.81,62.81,149.81z M64.28,142.89
		c-0.86,0-1.59,0.47-2.17,1.41c-0.49,0.8-0.75,1.64-0.78,2.51l-0.01,0.26l0.21,0.17l0.03,0.02c0.07,0.07,0.07,0.11,0.07,0.14
		c0,0.08-0.03,0.15-0.08,0.24l-0.14,0.22l0.1,0.24c0.28,0.7,0.88,1.09,1.68,1.09c0.63,0,1.2-0.32,1.7-0.96
		c0.45-0.58,0.72-1.17,0.78-1.77l0.04-0.38l-0.36-0.15c-0.3-0.13-0.65-0.33-0.65-0.58c0-0.28,0.18-0.59,0.52-0.92l0.18-0.17
		l-0.02-0.25c-0.03-0.34-0.13-0.61-0.31-0.81C64.94,143.07,64.69,142.89,64.28,142.89z M55.21,142.84c-1.1,0-2.01,0.45-2.73,1.34
		c-0.69,0.85-1.04,1.82-1.04,2.87v0.29c0.1,1.55,1.11,1.72,1.53,1.72c0.67,0,1.24-0.32,1.64-0.92c0.35-0.53,0.62-1.42,0.81-2.72
		l0.41-2.57H55.21z M59.81,134.8c-0.82,0-1.46,0.59-1.89,1.74c-0.19,0.47-0.4,1.06-0.6,1.76c-0.21,0.72-0.5,2.45-0.9,5.3l0.97,0.36
		c0.07-0.11,0.15-0.23,0.22-0.37c0.07-0.1,0.23-0.33,0.63-0.95c0.39-0.6,0.74-1.17,1.04-1.7c0.31-0.54,0.65-1.27,1.01-2.17
		c0.37-0.94,0.56-1.78,0.56-2.49C60.84,134.95,60.12,134.8,59.81,134.8z"/>
	<path class="st0" d="M141.11,150.45c-0.9,0-1.65-0.25-2.27-0.77c-0.08-0.06-0.15-0.13-0.21-0.2l-0.3-0.32l-0.38,0.23
		c-0.21,0.13-0.44,0.26-0.68,0.37c-0.94,0.44-2.11,0.66-3.48,0.66c-1,0-1.87-0.19-2.61-0.57c-0.19-0.1-0.37-0.2-0.53-0.32l-0.28-0.2
		l-0.3,0.17c-0.18,0.1-0.34,0.18-0.49,0.26c-0.94,0.44-2.11,0.66-3.48,0.66c-1,0-1.87-0.19-2.61-0.57
		c-0.28-0.15-0.53-0.31-0.74-0.48l-0.31-0.25l-0.51,0.34c-1.23,0.78-1.93,0.94-2.3,0.94c-0.73,0-1.03-0.28-1.04-0.99l0.07-0.71
		c0-0.04-0.02-0.07-0.06-0.08l-0.74-0.16c-0.05-0.01-0.08-0.07-0.05-0.12c0.39-0.55,0.71-1.22,0.94-2.02l0.71-2.6
		c0.21-0.7,0.36-0.84,0.36-0.84c0.04-0.04,0.12-0.09,0.29-0.09c0.15,0,0.26,0.04,0.36,0.11c0.04,0.03,0.07,0.06,0.08,0.09
		c-0.62,1.83-1.02,3.59-1.2,5.23l-0.03,0.35v0.02c0,1.07,0.75,1.12,0.9,1.12c0.58-0.03,1.2-0.36,1.91-1.01l0.06-0.06l0.04-0.07
		c0.74-1.3,1.71-3.15,2.86-5.49c0.24-0.45,0.51-0.51,0.73-0.51c0.13,0,0.23,0.03,0.31,0.11c0.05,0.05,0.1,0.11,0.1,0.25
		c0,0.15-0.03,0.26-0.08,0.35c-0.16,0.26-0.23,0.52-0.23,0.79c0,0.32,0.2,0.69,0.7,1.29c0.37,0.45,0.75,0.96,1.11,1.51
		c0.31,0.47,0.48,0.89,0.48,1.2c0,0.33-0.07,0.6-0.21,0.83l-0.64,1.04c-0.04,0.06,0.02,0.13,0.09,0.11l1.17-0.38
		c0.3-0.1,0.61-0.25,0.93-0.45l0.41-0.26l-0.13-0.24c0.76-1.31,1.75-3.21,2.95-5.64c0.24-0.45,0.51-0.51,0.73-0.51
		c0.13,0,0.23,0.03,0.31,0.11c0.05,0.05,0.1,0.11,0.1,0.25c0,0.15-0.03,0.26-0.08,0.35c-0.16,0.26-0.23,0.52-0.23,0.79
		c0,0.32,0.2,0.69,0.7,1.29c0.37,0.45,0.75,0.96,1.11,1.51c0.31,0.47,0.48,0.89,0.48,1.2c0,0.33-0.07,0.6-0.21,0.83l-0.64,1.04
		c-0.04,0.06,0.02,0.13,0.09,0.11l1.17-0.38c0.5-0.16,1.01-0.46,1.53-0.9l0.24-0.2l-0.06-0.3c-0.05-0.26-0.08-0.53-0.08-0.8
		c0-1.17,0.38-2.23,1.17-3.25c0.75-0.97,1.62-1.44,2.67-1.44c0.59,0,1.07,0.15,1.44,0.47c0.35,0.3,0.52,0.69,0.52,1.21
		c0,0.78-0.32,1.4-0.97,1.89c-0.66,0.49-1.68,0.9-3.03,1.2l-0.35,0.08l-0.06,0.35c-0.01,0.05-0.02,0.08-0.03,0.11
		c-0.01,0.01-0.07,0.09-0.07,0.09l-0.2,0.28l0.18,0.29c0.42,0.68,1.15,1.02,2.18,1.02c1.52,0,2.96-0.63,4.29-1.86l0.26,0.02
		l-0.4,0.47c-0.4,0.47-0.98,0.91-1.75,1.33C142.95,150.22,142.04,150.45,141.11,150.45z M131.63,148.1
		c-0.1,0.14-0.21,0.29-0.34,0.43l-0.33,0.37c-0.03,0.03-0.02,0.09,0.01,0.11l0.4,0.29c0.65,0.47,1.22,0.69,1.74,0.69h0.1
		c1.17,0,1.85-0.62,1.85-1.69c0-0.89-0.44-1.97-1.35-3.3l-0.44-0.64c-0.03-0.05-0.11-0.04-0.13,0.01l-1.62,3.24l0.11,0.23
		c0.02,0.05,0.03,0.07,0.03,0.07C131.67,147.98,131.66,148.04,131.63,148.1z M123.19,148.93l0.34,0.26c0.72,0.54,1.34,0.81,1.9,0.81
		h0.1c1.17,0,1.85-0.62,1.85-1.69c0-0.89-0.44-1.97-1.35-3.3l-0.44-0.64c-0.03-0.05-0.11-0.04-0.13,0.01L123.19,148.93z
		 M141.82,143.43c-0.74,0-1.43,0.39-2.06,1.17c-0.6,0.74-0.91,1.55-0.91,2.42v0.63c0,0.05,0.05,0.09,0.1,0.07l0.6-0.2
		c2.49-0.84,3.65-1.74,3.65-2.83C143.2,143.9,142.68,143.43,141.82,143.43z M155.59,150.43c-1,0-1.87-0.19-2.61-0.57
		c-0.34-0.18-0.64-0.38-0.88-0.6l-0.34-0.31l-0.36,0.29c-0.95,0.77-1.9,1.14-2.92,1.14c-0.7,0-1.21-0.26-1.58-0.82
		c-0.17-0.26-0.32-0.57-0.42-0.94l-0.18-0.63l0.02,0l-0.03-0.61c-0.01-0.13-0.01-0.26-0.01-0.39c0-0.35,0.01-0.61,0.02-0.78
		c0.22-2.44,0.88-5.03,1.96-7.68c0.51-1.23,1.16-2.26,1.92-3.07c0.71-0.75,1.42-1.12,2.16-1.12c0.38,0,0.66,0.11,0.87,0.34
		c0.22,0.24,0.33,0.53,0.33,0.9v0.18c-0.17,1.65-0.87,3.4-2.07,5.21c-1.22,1.84-2.59,3.35-4.06,4.49l-0.17,0.13l-0.03,0.22
		c-0.07,0.58-0.11,1.02-0.11,1.34c0,2.28,1.12,2.63,1.79,2.63c1,0,2.04-0.6,3.17-1.84l0.04-0.05l0.03-0.06
		c0.67-1.22,1.49-2.81,2.44-4.74c0.24-0.45,0.51-0.51,0.73-0.51c0.13,0,0.23,0.03,0.31,0.11c0.05,0.05,0.1,0.11,0.1,0.25
		c0,0.15-0.03,0.26-0.08,0.35c-0.16,0.26-0.23,0.52-0.23,0.79c0,0.32,0.2,0.69,0.7,1.29c0.37,0.45,0.75,0.96,1.11,1.51
		c0.31,0.47,0.48,0.89,0.48,1.2c0,0.33-0.07,0.6-0.21,0.83l-0.64,1.04c-0.04,0.06,0.02,0.13,0.09,0.11l1.17-0.38
		c0.9-0.29,1.8-1,2.77-2.17c0.03,0.02,0.06,0.06,0.1,0.12c0.15,0.19,0.16,0.28,0.16,0.28c0,0.07-0.01,0.13-0.04,0.19
		c-0.45,0.68-1.14,1.24-2.05,1.66C158.13,150.21,156.96,150.43,155.59,150.43z M152.68,148.93l0.34,0.26
		c0.72,0.54,1.34,0.81,1.9,0.81h0.1c1.17,0,1.85-0.62,1.85-1.69c0-0.89-0.44-1.97-1.35-3.3l-0.44-0.64
		c-0.03-0.05-0.11-0.04-0.13,0.01L152.68,148.93z M151.69,135.42c-1,0-1.86,0.99-2.72,3.11c-0.75,1.86-1.26,3.64-1.53,5.32
		c-0.01,0.03,0.01,0.07,0.04,0.08l0.82,0.38c0.03,0.01,0.07,0.01,0.09-0.02c1.04-1.15,2.01-2.47,2.88-3.93
		c0.92-1.55,1.38-2.82,1.4-3.89C152.67,135.82,152.29,135.42,151.69,135.42z M114.86,150.42c-0.47-0.04-0.82-0.21-1.05-0.53
		c-0.31-0.41-0.46-0.96-0.46-1.63c0-0.31,0.02-0.65,0.07-1.07l0.1-0.81c0.01-0.06-0.06-0.1-0.11-0.08l-0.75,0.35
		c-0.46,0.22-0.91,0.33-1.35,0.33c-1.12,0-1.25-0.47-1.26-0.93c0.02-0.1,0.1-0.44,0.4-1.6l0.14-0.56c0.01-0.05-0.02-0.1-0.08-0.1
		h-0.58c-0.32,0-0.39,0.12-0.87,0.87c-0.84,1.37-1.66,3.14-2.46,5.28c-0.14,0.26-0.33,0.36-0.64,0.36c-0.15,0-0.55,0-0.55-1.19
		v-0.21c0-1.81,0.27-3.6,0.79-5.32c0.27-0.79,0.62-0.79,0.75-0.79c0.12,0,0.16,0.04,0.18,0.05c0.03,0.03,0.04,0.05,0.05,0.1
		l-0.99,4.42c-0.01,0.04,0.02,0.08,0.06,0.09l0.89,0.23c0.04,0.01,0.08-0.01,0.09-0.05c0.3-0.92,0.87-1.98,1.69-3.17
		c1.09-1.58,1.59-1.66,1.68-1.66c0.62,0,0.62,0.2,0.62,0.36c0,0.32-0.08,0.7-0.24,1.13c-0.29,0.76-0.31,0.95-0.31,1.08
		c0,0.44,0.29,0.91,1.1,0.91c0.43,0,1-0.2,1.78-0.63l0.19-0.1l0.06-0.2c0.01-0.03,0.04-0.15,0.05-0.18
		c0.43-1.35,0.68-1.89,0.81-2.11c0.16-0.27,0.3-0.27,0.37-0.27c0.3,0,0.42,0.06,0.46,0.09c0.01,0.01,0.01,0.01,0.02,0.02
		c-0.05,0.19-0.2,0.63-0.57,1.66c-0.43,1.2-0.69,2.27-0.77,3.2l0,0.04v0.18c0,1.62,1,1.8,1.43,1.8c0.63,0,1.25-0.33,1.86-0.99
		c0.01-0.01,0.01-0.01,0.01-0.02c-0.15,0.28-0.36,0.56-0.62,0.83C116.34,150.14,115.62,150.48,114.86,150.42z"/>
</g>
<g>
	<path class="st0" d="M16.96,143.59c-0.78-1.27-1.15-2.62-1.13-4.05c0.03-1.34,0.41-2.61,1.15-3.81c0.8-1.3,1.88-2.22,3.22-2.77
		c0.83-0.34,1.82-0.56,2.99-0.67c1.17-0.11,3.06-0.12,5.34-0.07l0,0l-0.1,8.92L28.36,150l-0.83-0.03l-0.76-0.02l-1.33-0.03
		l0.02-1.26l0.06-2.21l0.01-0.53c-1.75,1.36-3.3,2.37-4.64,3.01c-1.62,0.77-2.87,1.14-3.76,1.13c-0.39-0.01-0.58-0.15-0.57-0.44
		c0-0.21,0.14-0.34,0.4-0.38c1.08-0.21,2.1-0.5,3.05-0.89c0.95-0.39,1.83-0.86,2.66-1.41C20.11,146.75,18.21,145.64,16.96,143.59z
		 M25.62,144.76l0.02-0.61l0.05-2.36l0.05-8.73c-2.02-0.01-3.6,0.16-4.72,0.52c-1.12,0.36-2.06,1-2.82,1.91
		c-0.99,1.18-1.5,2.53-1.53,4.05c-0.02,0.89,0.16,1.77,0.52,2.64c0.39,0.95,0.96,1.74,1.71,2.38c1.19,1.02,2.66,1.55,4.41,1.58
		l0.61,0C24.53,145.72,25.09,145.26,25.62,144.76z"/>
</g>
<path class="st1" d="M73.47-1.85c0.13,27.91,0.25,73.15,0,127.56"/>
<path class="st2" d="M69.52-1.85c0.19,40.86,0.19,86.1,0,127.56"/>
<path class="st1" d="M77.41-1.85c0.19,40.86,0.19,86.1,0,127.56"/>
<path class="st3" d="M88.55,125.71"/>
<path class="st3" d="M88.21,78.94"/>
<path class="st3" d="M89.96,2.41"/>
<path class="st4" d="M86.57,1.4c-0.49,40.85-2.49,82.85-1.04,124.31"/>
<path class="st4" d="M89.83,1.33c-0.76,40.92-1.76,82.92-0.06,124.38"/>
<path class="st4" d="M90.92-1.85c0.16-5.9,0.16-12.9-0.27-18.47c-0.6,3.04,0.04,0.27,0,0c-1.57,4.57-0.57,10.57-0.67,15.18"/>
<path class="st5" d="M94.05,125.39"/>
<path class="st6" d="M95.17-1.85c-4.25,0-1.09,40.1-2.09,58.1c0,23-2.16,77.96,2.09,69.46"/>
</svg>
